<svg xmlns="http://www.w3.org/2000/svg" xmlns:xlink="http://www.w3.org/1999/xlink" width="1440" height="751.942" viewBox="0 0 1440 751.942"><defs><linearGradient id="a" y1="0.443" x2="1" y2="0.37" gradientUnits="objectBoundingBox"><stop offset="0" stop-color="#104188"/><stop offset="1" stop-color="#206cac"/></linearGradient><linearGradient id="b" y1="0.646" x2="1" y2="0.893" gradientUnits="objectBoundingBox"><stop offset="0" stop-color="#2c7bbd"/><stop offset="1" stop-color="#13468b"/></linearGradient></defs><g transform="translate(1853 -2746.969)"><path d="M382.463,3117.969h1440v643.965s-360,107.977-720,107.977-720-107.977-720-107.977Z" transform="translate(-2235.463 -371)" fill="url(#a)"/><path d="M284.348,3182.458v23.816s19.23,5.675,59.687,11.019c20.445,2.7,46.716,6.073,78.788,6.984a1107.729,1107.729,0,0,0,212.4-14c61.555-9.936,112.434-27.192,158.462-41.418,75.506-23.338,138.434-47.128,215-64.79,60.133-13.871,128.813-24.319,218.684-25.079,273.543-2.312,494.9,195.64,494.9,195.64V3230.1s-198.491-156.676-437.365-177.177-407.117,72.952-609.558,123.18S284.348,3182.458,284.348,3182.458Z" transform="translate(-2136.348 183)" fill="url(#b)"/></g></svg>